<?xml version="1.0" encoding="UTF-8"?>
<svg width="200px" height="200px" viewBox="0 0 200 200" version="1.1" xmlns="http://www.w3.org/2000/svg" xmlns:xlink="http://www.w3.org/1999/xlink">
    <!-- Generator: Sketch 54.1 (76490) - https://sketchapp.com -->
    <title>Audio Large</title>
    <desc>Created with Sketch.</desc>
    <g id="Audio-Large" stroke="none" stroke-width="1" fill="none" fill-rule="evenodd">
        <g id="Audio" transform="translate(33.000000, 13.000000)">
            <g>
                <path d="M95.9765625,0 L4.60599347,0 C2.06215019,0 0,2.046875 0,6.01875 L0,171.875 C0,172.953125 2.06215019,175 4.60599347,175 L130.771805,175 C133.315648,175 135.377799,172.953125 135.377799,171.875 L135.377799,40.55625 C135.377799,38.38125 135.085005,37.68125 134.56868,37.165625 L97.9348181,0.803125 C97.4153451,0.290625 96.7101213,0 95.9765625,0" id="Fill-16" fill="#E9E9E0" fill-rule="nonzero"></path>
                <polyline id="Fill-17" fill="#D9D7CA" fill-rule="nonzero" points="97.5979478 0.471875 97.5979478 37.5 134.902402 37.5 97.5979478 0.471875"></polyline>
                <g id="Fill-244-2" transform="translate(0.000000, 121.875000)" fill="#7D6599" fill-rule="nonzero">
                    <path d="M130.771805,53.125 L4.60599347,53.125 C2.06215019,53.125 0,51.078125 0,48.553125 L0,0 L135.377799,0 L135.377799,48.553125 C135.377799,51.078125 133.315648,53.125 130.771805,53.125" id="Fill-244"></path>
                </g>
                <text font-family="Montserrat-Bold, Montserrat" font-size="21.875" font-weight="bold" fill="#FFFFFF">
                    <tspan x="34.6315299" y="155.375">Audio</tspan>
                </text>
                <path d="M91.8365205,46.83125 C90.0514226,44.34375 87.7437034,42.009375 84.5701959,39.4875 C72.2476679,29.703125 69.5936334,19.871875 69.2630597,18.43125 L69.2630597,15.625 C69.2630597,13.896875 67.8557603,12.5 66.1147388,12.5 C64.3737174,12.5 62.9664179,13.896875 62.9664179,15.625 L62.9664179,73.1625 L51.2987407,73.1625 C39.076959,73.1625 31.483209,79.290625 31.483209,89.153125 C31.483209,99.984375 38.5354478,106.984375 49.447528,106.984375 C60.3753498,106.984375 69.2630597,98.1625 69.2630597,87.315625 L69.2630597,51.4625 L70.2012593,52.225 C71.2716884,53.275 72.9119636,54.475 74.9898554,55.990625 C82.2908116,61.33125 94.5125933,70.2625 91.4366838,80.34375 C91.3453825,80.646875 91.301306,80.95 91.301306,81.25 C91.301306,82.59375 92.1765392,83.83125 93.5366138,84.240625 C93.8420009,84.33125 94.1473881,84.375 94.4496269,84.375 C95.8034049,84.375 97.0501399,83.50625 97.46257,82.15625 C102.584888,65.359375 96.1339785,52.8125 91.8365205,46.83125 L91.8365205,46.83125 Z M62.9664179,87.315625 C62.9664179,94.71875 56.9027519,100.734375 49.447528,100.734375 C42.0332323,100.734375 37.7798507,96.515625 37.7798507,89.153125 C37.7798507,81.103125 45.13118,79.4125 51.2987407,79.4125 L62.9664179,79.4125 L62.9664179,87.315625 L62.9664179,87.315625 Z M78.723764,50.9625 C76.9260728,49.64375 75.3708022,48.509375 74.407416,47.584375 L69.2630597,43.396875 L69.2630597,32.54375 C71.8667211,36.2125 75.5187733,40.30625 80.6347948,44.365625 C83.3392024,46.51875 85.2691231,48.453125 86.7079058,50.4625 C88.9621035,53.59375 91.213153,57.76875 92.3371035,62.890625 C88.1592817,57.859375 82.6276819,53.815625 78.723764,50.9625 L78.723764,50.9625 Z" id="Fill-263" fill="#C8BDB8" fill-rule="nonzero"></path>
            </g>
        </g>
    </g>
</svg>