<?xml version="1.0" encoding="UTF-8"?>
<svg width="200px" height="200px" viewBox="0 0 200 200" version="1.1" xmlns="http://www.w3.org/2000/svg" xmlns:xlink="http://www.w3.org/1999/xlink">
    <!-- Generator: Sketch 54.1 (76490) - https://sketchapp.com -->
    <title>Video Large</title>
    <desc>Created with Sketch.</desc>
    <g id="Video-Large" stroke="none" stroke-width="1" fill="none" fill-rule="evenodd">
        <g id="Video" transform="translate(33.000000, 13.000000)">
            <g>
                <path d="M95.9765625,0 L4.60599347,0 C2.06215019,0 0,2.046875 0,6.01875 L0,171.875 C0,172.953125 2.06215019,175 4.60599347,175 L130.771805,175 C133.315648,175 135.377799,172.953125 135.377799,171.875 L135.377799,40.55625 C135.377799,38.38125 135.085005,37.68125 134.56868,37.165625 L97.9348181,0.803125 C97.4153451,0.290625 96.7101213,0 95.9765625,0" id="Body" fill="#E9E9E0" fill-rule="nonzero"></path>
                <g id="Label" transform="translate(0.000000, 121.875000)">
                    <path d="M4.60599347,53.125 C2.06215019,53.125 0,51.078125 0,48.553125 L0,0 L135.377799,0 L135.377799,48.553125 C135.377799,51.078125 133.315648,53.125 130.771805,53.125 L4.60599347,53.125 Z" id="Background" fill="#FF5364" fill-rule="nonzero"></path>
                    <text id="Video" font-family="Montserrat-Bold, Montserrat" font-size="21.875" font-weight="bold" fill="#FFFFFF">
                        <tspan x="34.6315299" y="33.5">Video</tspan>
                    </text>
                </g>
                <g id="Icon" transform="translate(22.038246, 15.625000)" fill="#C8BDB8" fill-rule="nonzero">
                    <path d="M34.6315299,71.875 C34.1120569,71.875 33.5894356,71.746875 33.1171875,71.490625 C32.1097248,70.940625 31.483209,69.890625 31.483209,68.75 L31.483209,25 C31.483209,23.859375 32.1097248,22.809375 33.1171875,22.259375 C34.1246502,21.7125 35.3524953,21.753125 36.3221782,22.3625 L70.953708,44.2375 C71.8604244,44.8125 72.4113806,45.80625 72.4113806,46.875 C72.4113806,47.94375 71.8604244,48.9375 70.953708,49.5125 L36.3221782,71.3875 C35.8090019,71.709375 35.2202659,71.875 34.6315299,71.875 L34.6315299,71.875 Z M37.7798507,30.690625 L37.7798507,63.059375 L63.3977379,46.875 L37.7798507,30.690625 L37.7798507,30.690625 Z" id="Fill-249"></path>
                    <path d="M47.2248134,93.75 C21.1850513,93.75 0,72.721875 0,46.875 C0,21.028125 21.1850513,0 47.2248134,0 C73.2645756,0 94.4496269,21.028125 94.4496269,46.875 C94.4496269,72.721875 73.2645756,93.75 47.2248134,93.75 L47.2248134,93.75 Z M47.2248134,6.25 C24.6576493,6.25 6.29664179,24.475 6.29664179,46.875 C6.29664179,69.275 24.6576493,87.5 47.2248134,87.5 C69.7951259,87.5 88.1529851,69.275 88.1529851,46.875 C88.1529851,24.475 69.7951259,6.25 47.2248134,6.25 L47.2248134,6.25 Z" id="Fill-302"></path>
                </g>
                <polyline id="Fold" fill="#D9D7CA" fill-rule="nonzero" points="97.5979478 0.471875 97.5979478 37.5 134.902402 37.5 97.5979478 0.471875"></polyline>
            </g>
        </g>
    </g>
</svg>