<?xml version="1.0" encoding="UTF-8"?>
<svg width="200px" height="200px" viewBox="0 0 200 200" version="1.1" xmlns="http://www.w3.org/2000/svg" xmlns:xlink="http://www.w3.org/1999/xlink">
    <!-- Generator: Sketch 54.1 (76490) - https://sketchapp.com -->
    <title>Video Small</title>
    <desc>Created with Sketch.</desc>
    <g id="Video-Small" stroke="none" stroke-width="1" fill="none" fill-rule="evenodd">
        <g id="Video" transform="translate(62.000000, 50.000000)">
            <g>
                <path d="M54.4375,0 L2.6125,0 C1.16964286,0 0,1.16964286 0,3.43928571 L0,98.2142857 C0,98.8303571 1.16964286,100 2.6125,100 L74.1732143,100 C75.6160714,100 76.7857143,98.8303571 76.7857143,98.2142857 L76.7857143,23.175 C76.7857143,21.9321429 76.6196429,21.5321429 76.3267857,21.2375 L55.5482143,0.458928571 C55.2535714,0.166071429 54.8535714,0 54.4375,0" id="Body" fill="#E9E9E0" fill-rule="nonzero"></path>
                <g id="Label" transform="translate(0.000000, 69.642857)">
                    <path d="M2.6125,30.3571429 C1.16964286,30.3571429 0,29.1875 0,27.7446429 L0,0 L76.7857143,0 L76.7857143,27.7446429 C76.7857143,29.1875 75.6160714,30.3571429 74.1732143,30.3571429 L2.6125,30.3571429 Z" id="Background" fill="#FF5364" fill-rule="nonzero"></path>
                    <text id="Video" font-family="Montserrat-Bold, Montserrat" font-size="12.5" font-weight="bold" fill="#FFFFFF">
                        <tspan x="19.6428571" y="19.1428571">Video</tspan>
                    </text>
                </g>
                <g id="Icon" transform="translate(12.500000, 8.928571)" fill="#C8BDB8" fill-rule="nonzero">
                    <path d="M19.6428571,41.0714286 C19.3482143,41.0714286 19.0517857,40.9982143 18.7839286,40.8517857 C18.2125,40.5375 17.8571429,39.9375 17.8571429,39.2857143 L17.8571429,14.2857143 C17.8571429,13.6339286 18.2125,13.0339286 18.7839286,12.7196429 C19.3553571,12.4071429 20.0517857,12.4303571 20.6017857,12.7785714 L40.2446429,25.2785714 C40.7589286,25.6071429 41.0714286,26.175 41.0714286,26.7857143 C41.0714286,27.3964286 40.7589286,27.9642857 40.2446429,28.2928571 L20.6017857,40.7928571 C20.3107143,40.9767857 19.9767857,41.0714286 19.6428571,41.0714286 L19.6428571,41.0714286 Z M21.4285714,17.5375 L21.4285714,36.0339286 L35.9589286,26.7857143 L21.4285714,17.5375 L21.4285714,17.5375 Z" id="Fill-249"></path>
                    <path d="M26.7857143,53.5714286 C12.0160714,53.5714286 0,41.5553571 0,26.7857143 C0,12.0160714 12.0160714,0 26.7857143,0 C41.5553571,0 53.5714286,12.0160714 53.5714286,26.7857143 C53.5714286,41.5553571 41.5553571,53.5714286 26.7857143,53.5714286 L26.7857143,53.5714286 Z M26.7857143,3.57142857 C13.9857143,3.57142857 3.57142857,13.9857143 3.57142857,26.7857143 C3.57142857,39.5857143 13.9857143,50 26.7857143,50 C39.5875,50 50,39.5857143 50,26.7857143 C50,13.9857143 39.5875,3.57142857 26.7857143,3.57142857 L26.7857143,3.57142857 Z" id="Fill-302"></path>
                </g>
                <polyline id="Fold" fill="#D9D7CA" fill-rule="nonzero" points="55.3571429 0.269642857 55.3571429 21.4285714 76.5160714 21.4285714 55.3571429 0.269642857"></polyline>
            </g>
        </g>
    </g>
</svg>