<svg id="Multicolor" xmlns="http://www.w3.org/2000/svg" viewBox="0 0 178 178"><defs><style>.cls-1{fill:#e8f4fa;}.cls-2,.cls-9{fill:#191816;}.cls-2{opacity:0.15;}.cls-3{fill:#e0e0e0;}.cls-4{fill:#f0f0f0;}.cls-21,.cls-5{fill:none;}.cls-16,.cls-17,.cls-18,.cls-19,.cls-20,.cls-22,.cls-5{stroke:#191816;}.cls-16,.cls-17,.cls-18,.cls-19,.cls-20,.cls-21,.cls-22,.cls-5{stroke-linecap:round;stroke-linejoin:round;}.cls-6{fill:#bdbec0;}.cls-20,.cls-7{fill:#00b8f0;}.cls-8{fill:#4acfff;}.cls-10,.cls-17{fill:#ff6242;}.cls-11{fill:#ff866e;}.cls-12{fill:#656769;}.cls-13{fill:#87898c;}.cls-14{fill:#915e3a;}.cls-15{fill:#bf8256;}.cls-16{fill:#fff5e3;}.cls-18{fill:#ff8a14;}.cls-19{fill:#6dd627;}.cls-21{stroke:#bdbec0;}.cls-22{fill:#fff;}</style></defs><title>99- desktop-work-desk-notes</title><g id="Background"><g id="New_Symbol_36-17" data-name="New Symbol 36"><circle class="cls-1" cx="89" cy="88.71" r="81"/></g></g><g id="Scene"><path class="cls-2" d="M120.45,122.19l-2.47.21L117,110.86a1.67,1.67,0,0,0-1.79-1.52l-54.39,4.44a1.64,1.64,0,0,0-1.51,1.78l2.82,34.61A1.66,1.66,0,0,0,64,151.69l54.39-4.44a1.66,1.66,0,0,0,1.52-1.78l-1.21-14.83,2.47-.2a4.14,4.14,0,1,0-.67-8.25Z"/><path class="cls-2" d="M108.39,101.9h-38a5,5,0,0,1-5-5V85.36h48V96.93A5,5,0,0,1,108.39,101.9Z"/><path class="cls-2" d="M133.19,62.21c0-1.42-11.77-2.63-28.31-3.1l0-.21h-31l0,.21c-16.55.47-28.32,1.68-28.32,3.1S57,64.79,73.13,65.28l-.26,2.2a7,7,0,0,0,6.92,7.78H98.94a7,7,0,0,0,6.92-7.78l-.26-2.2C121.76,64.79,133.19,63.6,133.19,62.21Z"/><path class="cls-2" d="M131.33,113.77l-2.41,6.69a6.23,6.23,0,1,0,11.72,4.21l2.41-6.69a6.23,6.23,0,1,0-11.72-4.21Z"/><path class="cls-2" d="M123.52,152.72l.69,2.38a1.66,1.66,0,0,1-1.13,2.05L102.85,163a.82.82,0,0,1-1-.56l0-.14-1.21.34A3.31,3.31,0,0,1,98.27,165c-1.28.36-3.71-.79-4.92-1.44a.81.81,0,0,1-.32-1.15c.71-1.19,2.19-3.42,3.47-3.78a3.29,3.29,0,0,1,3.18.82l1.19-.34-.19-.66a.82.82,0,0,1,.56-1l20.23-5.85A1.66,1.66,0,0,1,123.52,152.72Z"/><circle class="cls-2" cx="140.63" cy="84.53" r="11.58"/><path class="cls-3" d="M109.21,97.76H69.52a3.31,3.31,0,0,1-3.31-3.31V79.57a1.66,1.66,0,0,1,1.66-1.65h43a1.65,1.65,0,0,1,1.65,1.65V94.45A3.31,3.31,0,0,1,109.21,97.76Z"/><path class="cls-4" d="M110.87,77.92h-43a1.66,1.66,0,0,0-1.66,1.65v5a3.31,3.31,0,0,1,3.31-3.31h39.69a3.31,3.31,0,0,1,3.31,3.31v-5A1.65,1.65,0,0,0,110.87,77.92Z"/><path class="cls-5" d="M109.21,97.76H69.52a3.31,3.31,0,0,1-3.31-3.31V79.57a1.66,1.66,0,0,1,1.66-1.65h43a1.65,1.65,0,0,1,1.65,1.65V94.45A3.31,3.31,0,0,1,109.21,97.76Z"/><line class="cls-5" x1="71.18" y1="92.8" x2="74.48" y2="92.8"/><line class="cls-5" x1="71.18" y1="87.84" x2="74.48" y2="87.84"/><line class="cls-5" x1="71.18" y1="82.88" x2="74.48" y2="82.88"/><line class="cls-5" x1="77.79" y1="87.84" x2="81.1" y2="87.84"/><line class="cls-5" x1="77.79" y1="82.88" x2="81.1" y2="82.88"/><line class="cls-5" x1="84.41" y1="87.84" x2="87.71" y2="87.84"/><line class="cls-5" x1="84.41" y1="82.88" x2="87.71" y2="82.88"/><line class="cls-5" x1="91.02" y1="87.84" x2="94.33" y2="87.84"/><line class="cls-5" x1="91.02" y1="82.88" x2="94.33" y2="82.88"/><line class="cls-5" x1="97.64" y1="87.84" x2="100.94" y2="87.84"/><line class="cls-5" x1="97.64" y1="82.88" x2="100.94" y2="82.88"/><line class="cls-5" x1="104.25" y1="92.8" x2="107.56" y2="92.8"/><line class="cls-5" x1="104.25" y1="87.84" x2="107.56" y2="87.84"/><line class="cls-5" x1="104.25" y1="82.88" x2="107.56" y2="82.88"/><line class="cls-5" x1="77.79" y1="92.8" x2="100.94" y2="92.8"/><path class="cls-3" d="M150.49,30H28.24a5.86,5.86,0,0,0-5.32,8.31h132.9A5.86,5.86,0,0,0,150.49,30Z"/><path class="cls-5" d="M150.49,30H28.24a5.86,5.86,0,0,0-5.32,8.31h132.9A5.86,5.86,0,0,0,150.49,30Z"/><path class="cls-3" d="M96.72,43.19H82A6.62,6.62,0,0,0,75.45,49L73.7,63.91a6.61,6.61,0,0,0,6.57,7.39h18.2A6.61,6.61,0,0,0,105,63.91L103.28,49A6.61,6.61,0,0,0,96.72,43.19Z"/><path class="cls-6" d="M104.84,62.21,103.28,49a6.61,6.61,0,0,0-6.57-5.84H82A6.62,6.62,0,0,0,75.45,49L73.9,62.21Z"/><path class="cls-5" d="M96.72,43.19H82A6.62,6.62,0,0,0,75.45,49L73.7,63.91a6.61,6.61,0,0,0,6.57,7.39h18.2A6.61,6.61,0,0,0,105,63.91L103.28,49A6.61,6.61,0,0,0,96.72,43.19Z"/><path class="cls-7" d="M153,33.27H25.75a3.3,3.3,0,0,0-2.83,5L33.35,55.66a5,5,0,0,0,4.25,2.41H141.13a5,5,0,0,0,4.26-2.41l10.43-17.39A3.3,3.3,0,0,0,153,33.27Z"/><path class="cls-8" d="M37.6,58.07h27l24.81-24.8H25.75a3.3,3.3,0,0,0-2.83,5L33.35,55.66A5,5,0,0,0,37.6,58.07Z"/><path class="cls-5" d="M153,33.27H25.75a3.3,3.3,0,0,0-2.83,5L33.35,55.66a5,5,0,0,0,4.25,2.41H141.13a5,5,0,0,0,4.26-2.41l10.43-17.39A3.3,3.3,0,0,0,153,33.27Z"/><path class="cls-3" d="M31.82,53.11l1.53,2.55a5,5,0,0,0,4.25,2.41H141.13a5,5,0,0,0,4.26-2.41l1.53-2.55Z"/><path class="cls-5" d="M31.82,53.11l1.53,2.55a5,5,0,0,0,4.25,2.41H141.13a5,5,0,0,0,4.26-2.41l1.53-2.55Z"/><path class="cls-3" d="M130.81,112.34l-2.24,6.23a5.79,5.79,0,0,0,10.89,3.91l2.24-6.22a5.79,5.79,0,1,0-10.89-3.92Z"/><path class="cls-4" d="M138.21,108.85a5.79,5.79,0,0,0-7.4,3.49l-1.4,3.9a5.79,5.79,0,1,1,10.89,3.91l1.4-3.89A5.8,5.8,0,0,0,138.21,108.85Z"/><path class="cls-5" d="M130.81,112.34l-2.24,6.23a5.79,5.79,0,0,0,10.89,3.91l2.24-6.22a5.79,5.79,0,1,0-10.89-3.92Z"/><path class="cls-9" d="M136.53,112.7a.84.84,0,0,0-.78.54.83.83,0,0,0,.5,1.06,1,1,0,0,0,.28,0,.83.83,0,0,0,.78-.55.81.81,0,0,0-.5-1,.66.66,0,0,0-.28,0Z"/><rect class="cls-10" x="98.63" y="154" width="23.15" height="4.96" rx="1.65" ry="1.65" transform="translate(-37.58 34.86) rotate(-15.39)"/><path class="cls-11" d="M99.05,159.56l22.32-6.15-.22-.8a1.65,1.65,0,0,0-2-1.15L100,156.73a1.65,1.65,0,0,0-1.16,2Z"/><line class="cls-5" x1="112.74" y1="153.21" x2="114.06" y2="158"/><path class="cls-5" d="M119.12,151.46a3.31,3.31,0,0,0-4.07-2.31l-6.38,1.75"/><path class="cls-12" d="M97.32,162.61A2.48,2.48,0,0,0,96,157.82c-1.32.37-3.33,3.49-3.33,3.49S96,163,97.32,162.61Z"/><path class="cls-13" d="M92.67,161.31s2-3.12,3.33-3.49a2.49,2.49,0,0,1,3,1.74Z"/><path class="cls-5" d="M97.32,162.61A2.48,2.48,0,0,0,96,157.82c-1.32.37-3.33,3.49-3.33,3.49S96,163,97.32,162.61Z"/><rect class="cls-5" x="98.63" y="154" width="23.15" height="4.96" rx="1.65" ry="1.65" transform="translate(-37.58 34.86) rotate(-15.39)"/><path class="cls-14" d="M121.75,127.89a3.31,3.31,0,0,0-.54-6.59l-3.3.26.54,6.6Z"/><path class="cls-15" d="M124.63,125.58a3.3,3.3,0,0,0-3.42-4.28l-3.3.26.2,2.48,3.3-.27A3.31,3.31,0,0,1,124.63,125.58Z"/><rect class="cls-14" x="62.05" y="108.95" width="56.23" height="36.38" rx="1.65" ry="1.65" transform="translate(-10.03 7.74) rotate(-4.66)"/><path class="cls-15" d="M115.06,106.86l-52.75,4.3a1.65,1.65,0,0,0-1.51,1.78l.33,4.12a1.66,1.66,0,0,1,1.52-1.78l52.74-4.3a1.66,1.66,0,0,1,1.78,1.52l-.33-4.12A1.66,1.66,0,0,0,115.06,106.86Z"/><rect class="cls-5" x="62.05" y="108.95" width="56.23" height="36.38" rx="1.65" ry="1.65" transform="translate(-10.03 7.74) rotate(-4.66)"/><path class="cls-5" d="M121.75,127.89a3.31,3.31,0,0,0-.54-6.59l-3.3.26.54,6.6Z"/><rect class="cls-16" x="68.7" y="113.2" width="19.85" height="29.77" rx="1.65" ry="1.65" transform="translate(-10.14 6.81) rotate(-4.66)"/><rect class="cls-16" x="91.78" y="111.32" width="19.84" height="29.77" rx="1.65" ry="1.65" transform="translate(-9.91 8.67) rotate(-4.66)"/><path class="cls-17" d="M68.06,120.65l-1.65.13a1.64,1.64,0,0,1-1.78-1.51l-.13-1.65A1.64,1.64,0,0,1,66,115.84l1.65-.14Z"/><path class="cls-18" d="M114.62,121.83l-3.3.27-.4-4.94,1.64-.14a1.67,1.67,0,0,1,1.79,1.52Z"/><rect class="cls-19" x="111.52" y="121.96" width="3.31" height="4.96" transform="translate(-9.73 9.6) rotate(-4.66)"/><path class="cls-20" d="M115.29,130.07a1.67,1.67,0,0,1-1.52,1.79l-1.65.13-.4-4.94,3.3-.27Z"/><line class="cls-5" x1="86.19" y1="119.17" x2="92.79" y2="118.63"/><line class="cls-5" x1="86.46" y1="122.47" x2="93.05" y2="121.93"/><line class="cls-5" x1="87.67" y1="137.3" x2="94.26" y2="136.76"/><line class="cls-5" x1="87.4" y1="134.01" x2="93.99" y2="133.47"/><line class="cls-5" x1="71.09" y1="117.08" x2="76.03" y2="116.68"/><line class="cls-5" x1="80.98" y1="116.28" x2="82.63" y2="116.14"/><line class="cls-21" x1="71.36" y1="120.38" x2="82.9" y2="119.44"/><line class="cls-21" x1="71.89" y1="126.97" x2="83.43" y2="126.03"/><line class="cls-5" x1="72.16" y1="130.27" x2="77.11" y2="129.87"/><line class="cls-5" x1="82.05" y1="129.46" x2="83.7" y2="129.33"/><line class="cls-21" x1="72.43" y1="133.57" x2="83.97" y2="132.63"/><line class="cls-21" x1="72.97" y1="140.16" x2="84.51" y2="139.22"/><line class="cls-5" x1="95.81" y1="115.07" x2="100.76" y2="114.67"/><line class="cls-5" x1="105.7" y1="114.26" x2="107.35" y2="114.13"/><line class="cls-21" x1="96.08" y1="118.36" x2="107.62" y2="117.42"/><line class="cls-21" x1="96.62" y1="124.96" x2="108.16" y2="124.02"/><line class="cls-5" x1="96.89" y1="128.25" x2="101.83" y2="127.85"/><line class="cls-5" x1="106.78" y1="127.45" x2="108.43" y2="127.31"/><line class="cls-21" x1="97.16" y1="131.55" x2="108.69" y2="130.61"/><line class="cls-21" x1="97.69" y1="138.14" x2="109.23" y2="137.2"/><path class="cls-22" d="M149.85,91.85a2.48,2.48,0,1,0,3.51-3.51l-4.09-4.09-3.51,3.51Z"/><path class="cls-22" d="M148.68,87.17a10.75,10.75,0,1,1,0-15.2A10.74,10.74,0,0,1,148.68,87.17Z"/><circle class="cls-15" cx="141.08" cy="79.57" r="7.44"/><path class="cls-14" d="M141.08,75.44a7.42,7.42,0,0,1,7.24,5.78,7.44,7.44,0,1,0-14.48,0A7.42,7.42,0,0,1,141.08,75.44Z"/><circle class="cls-5" cx="141.08" cy="79.57" r="7.44"/><path class="cls-2" d="M43.75,106.79,30.89,109.7a1.66,1.66,0,0,1-2-1.15l-5.8-22.68A1.54,1.54,0,0,1,24.31,84l12.86-2.91a1.65,1.65,0,0,1,2,1.14L45,104.91A1.56,1.56,0,0,1,43.75,106.79Z"/><rect class="cls-22" x="28.33" y="81.5" width="13.89" height="23.81" rx="1" ry="1" transform="translate(-20.88 10.85) rotate(-13.53)"/><rect class="cls-7" x="28.33" y="85.46" width="13.89" height="15.88" transform="translate(-20.88 10.85) rotate(-13.53)"/><polygon class="cls-8" points="29.68 99.85 39.21 84.29 26.67 87.31 29.68 99.85"/><rect class="cls-5" x="28.33" y="85.46" width="13.89" height="15.88" transform="translate(-20.88 10.85) rotate(-13.53)"/></g></svg>