<?xml version="1.0" encoding="UTF-8"?>
<svg width="200px" height="200px" viewBox="0 0 200 200" version="1.1" xmlns="http://www.w3.org/2000/svg" xmlns:xlink="http://www.w3.org/1999/xlink">
    <!-- Generator: Sketch 54.1 (76490) - https://sketchapp.com -->
    <title>Document Large</title>
    <desc>Created with Sketch.</desc>
    <g id="Document-Large" stroke="none" stroke-width="1" fill="none" fill-rule="evenodd">
        <g id="Document" transform="translate(33.000000, 13.000000)">
            <g>
                <path d="M95.9765625,0 L4.60599347,0 C2.06215019,0 0,2.046875 0,6.01875 L0,171.875 C0,172.953125 2.06215019,175 4.60599347,175 L130.771805,175 C133.315648,175 135.377799,172.953125 135.377799,171.875 L135.377799,40.55625 C135.377799,38.38125 135.085005,37.68125 134.56868,37.165625 L97.9348181,0.803125 C97.4153451,0.290625 96.7101213,0 95.9765625,0" id="Fill-68" fill="#E9E9E0" fill-rule="nonzero"></path>
                <polyline id="Fill-69" fill="#D9D7CA" fill-rule="nonzero" points="97.5979478 0.471875 97.5979478 37.5 134.902402 37.5 97.5979478 0.471875"></polyline>
                <path d="M37.7798507,40.625 L18.8899254,40.625 C17.1520522,40.625 15.7416045,39.225 15.7416045,37.5 C15.7416045,35.775 17.1520522,34.375 18.8899254,34.375 L37.7798507,34.375 C39.5177239,34.375 40.9281716,35.775 40.9281716,37.5 C40.9281716,39.225 39.5177239,40.625 37.7798507,40.625" id="Fill-88" fill="#8697CB" fill-rule="nonzero"></path>
                <path d="M47.2248134,56.25 L18.8899254,56.25 C17.1520522,56.25 15.7416045,54.85 15.7416045,53.125 C15.7416045,51.4 17.1520522,50 18.8899254,50 L47.2248134,50 C48.9626866,50 50.3731343,51.4 50.3731343,53.125 C50.3731343,54.85 48.9626866,56.25 47.2248134,56.25" id="Fill-89" fill="#8697CB" fill-rule="nonzero"></path>
                <path d="M59.818097,56.25 C58.9995336,56.25 58.1809701,55.90625 57.5827892,55.34375 C57.0160914,54.75 56.6697761,53.9375 56.6697761,53.125 C56.6697761,52.3125 57.0160914,51.5 57.5827892,50.90625 C58.7476679,49.75 60.8885261,49.75 62.0534049,50.90625 C62.6201026,51.5 62.9664179,52.3125 62.9664179,53.125 C62.9664179,53.9375 62.6201026,54.75 62.0534049,55.34375 C61.4552239,55.90625 60.6366604,56.25 59.818097,56.25" id="Fill-90" fill="#8697CB" fill-rule="nonzero"></path>
                <path d="M97.5979478,56.25 L72.4113806,56.25 C70.6735075,56.25 69.2630597,54.85 69.2630597,53.125 C69.2630597,51.4 70.6735075,50 72.4113806,50 L97.5979478,50 C99.3358209,50 100.746269,51.4 100.746269,53.125 C100.746269,54.85 99.3358209,56.25 97.5979478,56.25" id="Fill-91" fill="#8697CB" fill-rule="nonzero"></path>
                <path d="M18.8899254,103.125 C18.0713619,103.125 17.2527985,102.78125 16.6546175,102.21875 C16.0879198,101.625 15.7416045,100.8125 15.7416045,100 C15.7416045,99.1875 16.0879198,98.375 16.6546175,97.78125 C17.8194963,96.625 19.9603545,96.625 21.1252332,97.78125 C21.691931,98.375 22.0382463,99.15625 22.0382463,100 C22.0382463,100.8125 21.691931,101.625 21.1252332,102.21875 C20.5270522,102.78125 19.7084888,103.125 18.8899254,103.125" id="Fill-92" fill="#8697CB" fill-rule="nonzero"></path>
                <path d="M56.6697761,103.125 L31.483209,103.125 C29.7453358,103.125 28.3348881,101.725 28.3348881,100 C28.3348881,98.275 29.7453358,96.875 31.483209,96.875 L56.6697761,96.875 C58.4076493,96.875 59.818097,98.275 59.818097,100 C59.818097,101.725 58.4076493,103.125 56.6697761,103.125" id="Fill-93" fill="#8697CB" fill-rule="nonzero"></path>
                <path d="M116.487873,56.25 L110.191231,56.25 C108.453358,56.25 107.04291,54.85 107.04291,53.125 C107.04291,51.4 108.453358,50 110.191231,50 L116.487873,50 C118.225746,50 119.636194,51.4 119.636194,53.125 C119.636194,54.85 118.225746,56.25 116.487873,56.25" id="Fill-94" fill="#8697CB" fill-rule="nonzero"></path>
                <path d="M88.1529851,71.875 L18.8899254,71.875 C17.1520522,71.875 15.7416045,70.475 15.7416045,68.75 C15.7416045,67.025 17.1520522,65.625 18.8899254,65.625 L88.1529851,65.625 C89.8908582,65.625 91.301306,67.025 91.301306,68.75 C91.301306,70.475 89.8908582,71.875 88.1529851,71.875" id="Fill-95" fill="#8697CB" fill-rule="nonzero"></path>
                <path d="M116.487873,71.875 L97.5979478,71.875 C95.8600746,71.875 94.4496269,70.475 94.4496269,68.75 C94.4496269,67.025 95.8600746,65.625 97.5979478,65.625 L116.487873,65.625 C118.225746,65.625 119.636194,67.025 119.636194,68.75 C119.636194,70.475 118.225746,71.875 116.487873,71.875" id="Fill-96" fill="#8697CB" fill-rule="nonzero"></path>
                <path d="M31.483209,87.5 L18.8899254,87.5 C17.1520522,87.5 15.7416045,86.1 15.7416045,84.375 C15.7416045,82.65 17.1520522,81.25 18.8899254,81.25 L31.483209,81.25 C33.2210821,81.25 34.6315299,82.65 34.6315299,84.375 C34.6315299,86.1 33.2210821,87.5 31.483209,87.5" id="Fill-97" fill="#8697CB" fill-rule="nonzero"></path>
                <path d="M75.5597015,87.5 L44.0764925,87.5 C42.3386194,87.5 40.9281716,86.1 40.9281716,84.375 C40.9281716,82.65 42.3386194,81.25 44.0764925,81.25 L75.5597015,81.25 C77.2975746,81.25 78.7080224,82.65 78.7080224,84.375 C78.7080224,86.1 77.2975746,87.5 75.5597015,87.5" id="Fill-98" fill="#8697CB" fill-rule="nonzero"></path>
                <path d="M116.487873,87.5 L88.1529851,87.5 C86.4151119,87.5 85.0046642,86.1 85.0046642,84.375 C85.0046642,82.65 86.4151119,81.25 88.1529851,81.25 L116.487873,81.25 C118.225746,81.25 119.636194,82.65 119.636194,84.375 C119.636194,86.1 118.225746,87.5 116.487873,87.5" id="Fill-99" fill="#8697CB" fill-rule="nonzero"></path>
                <g id="Label" transform="translate(0.000000, 121.875000)" fill="#0096E6" fill-rule="nonzero">
                    <path d="M130.771805,53.125 L4.60599347,53.125 C2.06215019,53.125 0,51.078125 0,48.553125 L0,0 L135.377799,0 L135.377799,48.553125 C135.377799,51.078125 133.315648,53.125 130.771805,53.125" id="Fill-282"></path>
                </g>
                <text font-family="Montserrat-Bold, Montserrat" font-size="21.875" font-weight="bold" fill="#FFFFFF">
                    <tspan x="6.29664179" y="155.375">Document</tspan>
                </text>
            </g>
        </g>
    </g>
</svg>