<?xml version="1.0" encoding="UTF-8"?>
<svg width="200px" height="200px" viewBox="0 0 200 200" version="1.1" xmlns="http://www.w3.org/2000/svg" xmlns:xlink="http://www.w3.org/1999/xlink">
    <!-- Generator: Sketch 54.1 (76490) - https://sketchapp.com -->
    <title>Document Small</title>
    <desc>Created with Sketch.</desc>
    <g id="Document-Small" stroke="none" stroke-width="1" fill="none" fill-rule="evenodd">
        <g id="Document" transform="translate(62.000000, 50.000000)">
            <g>
                <path d="M54.4375,0 L2.6125,0 C1.16964286,0 0,1.16964286 0,3.43928571 L0,98.2142857 C0,98.8303571 1.16964286,100 2.6125,100 L74.1732143,100 C75.6160714,100 76.7857143,98.8303571 76.7857143,98.2142857 L76.7857143,23.175 C76.7857143,21.9321429 76.6196429,21.5321429 76.3267857,21.2375 L55.5482143,0.458928571 C55.2535714,0.166071429 54.8535714,0 54.4375,0" id="Fill-68" fill="#E9E9E0" fill-rule="nonzero"></path>
                <polyline id="Fill-69" fill="#D9D7CA" fill-rule="nonzero" points="55.3571429 0.269642857 55.3571429 21.4285714 76.5160714 21.4285714 55.3571429 0.269642857"></polyline>
                <path d="M21.4285714,23.2142857 L10.7142857,23.2142857 C9.72857143,23.2142857 8.92857143,22.4142857 8.92857143,21.4285714 C8.92857143,20.4428571 9.72857143,19.6428571 10.7142857,19.6428571 L21.4285714,19.6428571 C22.4142857,19.6428571 23.2142857,20.4428571 23.2142857,21.4285714 C23.2142857,22.4142857 22.4142857,23.2142857 21.4285714,23.2142857" id="Fill-88" fill="#8697CB" fill-rule="nonzero"></path>
                <path d="M26.7857143,32.1428571 L10.7142857,32.1428571 C9.72857143,32.1428571 8.92857143,31.3428571 8.92857143,30.3571429 C8.92857143,29.3714286 9.72857143,28.5714286 10.7142857,28.5714286 L26.7857143,28.5714286 C27.7714286,28.5714286 28.5714286,29.3714286 28.5714286,30.3571429 C28.5714286,31.3428571 27.7714286,32.1428571 26.7857143,32.1428571" id="Fill-89" fill="#8697CB" fill-rule="nonzero"></path>
                <path d="M33.9285714,32.1428571 C33.4642857,32.1428571 33,31.9464286 32.6607143,31.625 C32.3392857,31.2857143 32.1428571,30.8214286 32.1428571,30.3571429 C32.1428571,29.8928571 32.3392857,29.4285714 32.6607143,29.0892857 C33.3214286,28.4285714 34.5357143,28.4285714 35.1964286,29.0892857 C35.5178571,29.4285714 35.7142857,29.8928571 35.7142857,30.3571429 C35.7142857,30.8214286 35.5178571,31.2857143 35.1964286,31.625 C34.8571429,31.9464286 34.3928571,32.1428571 33.9285714,32.1428571" id="Fill-90" fill="#8697CB" fill-rule="nonzero"></path>
                <path d="M55.3571429,32.1428571 L41.0714286,32.1428571 C40.0857143,32.1428571 39.2857143,31.3428571 39.2857143,30.3571429 C39.2857143,29.3714286 40.0857143,28.5714286 41.0714286,28.5714286 L55.3571429,28.5714286 C56.3428571,28.5714286 57.1428571,29.3714286 57.1428571,30.3571429 C57.1428571,31.3428571 56.3428571,32.1428571 55.3571429,32.1428571" id="Fill-91" fill="#8697CB" fill-rule="nonzero"></path>
                <path d="M10.7142857,58.9285714 C10.25,58.9285714 9.78571429,58.7321429 9.44642857,58.4107143 C9.125,58.0714286 8.92857143,57.6071429 8.92857143,57.1428571 C8.92857143,56.6785714 9.125,56.2142857 9.44642857,55.875 C10.1071429,55.2142857 11.3214286,55.2142857 11.9821429,55.875 C12.3035714,56.2142857 12.5,56.6607143 12.5,57.1428571 C12.5,57.6071429 12.3035714,58.0714286 11.9821429,58.4107143 C11.6428571,58.7321429 11.1785714,58.9285714 10.7142857,58.9285714" id="Fill-92" fill="#8697CB" fill-rule="nonzero"></path>
                <path d="M32.1428571,58.9285714 L17.8571429,58.9285714 C16.8714286,58.9285714 16.0714286,58.1285714 16.0714286,57.1428571 C16.0714286,56.1571429 16.8714286,55.3571429 17.8571429,55.3571429 L32.1428571,55.3571429 C33.1285714,55.3571429 33.9285714,56.1571429 33.9285714,57.1428571 C33.9285714,58.1285714 33.1285714,58.9285714 32.1428571,58.9285714" id="Fill-93" fill="#8697CB" fill-rule="nonzero"></path>
                <path d="M66.0714286,32.1428571 L62.5,32.1428571 C61.5142857,32.1428571 60.7142857,31.3428571 60.7142857,30.3571429 C60.7142857,29.3714286 61.5142857,28.5714286 62.5,28.5714286 L66.0714286,28.5714286 C67.0571429,28.5714286 67.8571429,29.3714286 67.8571429,30.3571429 C67.8571429,31.3428571 67.0571429,32.1428571 66.0714286,32.1428571" id="Fill-94" fill="#8697CB" fill-rule="nonzero"></path>
                <path d="M50,41.0714286 L10.7142857,41.0714286 C9.72857143,41.0714286 8.92857143,40.2714286 8.92857143,39.2857143 C8.92857143,38.3 9.72857143,37.5 10.7142857,37.5 L50,37.5 C50.9857143,37.5 51.7857143,38.3 51.7857143,39.2857143 C51.7857143,40.2714286 50.9857143,41.0714286 50,41.0714286" id="Fill-95" fill="#8697CB" fill-rule="nonzero"></path>
                <path d="M66.0714286,41.0714286 L55.3571429,41.0714286 C54.3714286,41.0714286 53.5714286,40.2714286 53.5714286,39.2857143 C53.5714286,38.3 54.3714286,37.5 55.3571429,37.5 L66.0714286,37.5 C67.0571429,37.5 67.8571429,38.3 67.8571429,39.2857143 C67.8571429,40.2714286 67.0571429,41.0714286 66.0714286,41.0714286" id="Fill-96" fill="#8697CB" fill-rule="nonzero"></path>
                <path d="M17.8571429,50 L10.7142857,50 C9.72857143,50 8.92857143,49.2 8.92857143,48.2142857 C8.92857143,47.2285714 9.72857143,46.4285714 10.7142857,46.4285714 L17.8571429,46.4285714 C18.8428571,46.4285714 19.6428571,47.2285714 19.6428571,48.2142857 C19.6428571,49.2 18.8428571,50 17.8571429,50" id="Fill-97" fill="#8697CB" fill-rule="nonzero"></path>
                <path d="M42.8571429,50 L25,50 C24.0142857,50 23.2142857,49.2 23.2142857,48.2142857 C23.2142857,47.2285714 24.0142857,46.4285714 25,46.4285714 L42.8571429,46.4285714 C43.8428571,46.4285714 44.6428571,47.2285714 44.6428571,48.2142857 C44.6428571,49.2 43.8428571,50 42.8571429,50" id="Fill-98" fill="#8697CB" fill-rule="nonzero"></path>
                <path d="M66.0714286,50 L50,50 C49.0142857,50 48.2142857,49.2 48.2142857,48.2142857 C48.2142857,47.2285714 49.0142857,46.4285714 50,46.4285714 L66.0714286,46.4285714 C67.0571429,46.4285714 67.8571429,47.2285714 67.8571429,48.2142857 C67.8571429,49.2 67.0571429,50 66.0714286,50" id="Fill-99" fill="#8697CB" fill-rule="nonzero"></path>
                <g id="Label" transform="translate(0.000000, 69.642857)" fill="#0096E6" fill-rule="nonzero">
                    <path d="M74.1732143,30.3571429 L2.6125,30.3571429 C1.16964286,30.3571429 0,29.1875 0,27.7446429 L0,0 L76.7857143,0 L76.7857143,27.7446429 C76.7857143,29.1875 75.6160714,30.3571429 74.1732143,30.3571429" id="Fill-282"></path>
                </g>
                <text font-family="Montserrat-Bold, Montserrat" font-size="12.5" font-weight="bold" fill="#FFFFFF">
                    <tspan x="3.57142857" y="88.7857143">Document</tspan>
                </text>
            </g>
        </g>
    </g>
</svg>