<?xml version="1.0" encoding="UTF-8" standalone="no"?>
<svg width="58px" height="47px" viewBox="0 0 58 47" version="1.1" xmlns="http://www.w3.org/2000/svg" xmlns:xlink="http://www.w3.org/1999/xlink">
    <!-- Generator: Sketch 40.1 (33804) - http://www.bohemiancoding.com/sketch -->
    <title>72 -Folder- (document, paper, write, note, flat)</title>
    <desc>Created with Sketch.</desc>
    <defs></defs>
    <g id="Page-1" stroke="none" stroke-width="1" fill="none" fill-rule="evenodd">
        <g id="Icons" transform="translate(-238.000000, -1201.000000)">
            <g id="72--Folder--(document,-paper,-write,-note,-flat)" transform="translate(238.000000, 1201.000000)">
                <path d="M0,13.014 L0,43.014 C0,44.671 1.343,46.014 3,46.014 L55,46.014 C56.657,46.014 58,44.671 58,43.014 L58,13.014 C58,11.357 56.657,10.014 55,10.014 L3,10.014 C1.343,10.014 0,11.357 0,13.014" id="Fill-281" fill="#FBC176"></path>
                <path d="M53,10.014 C53,7.805 51.209,6.014 49,6.014 L33,6.014 L28,0.014 L6,0.014 C4.343,0.014 3,1.357 3,3.014 L3,10.014 L53,10.014 Z" id="Fill-500" fill="#C39A6E"></path>
                <path d="M18,17.014 L6,17.014 C5.448,17.014 5,16.567 5,16.014 C5,15.461 5.448,15.014 6,15.014 L18,15.014 C18.552,15.014 19,15.461 19,16.014 C19,16.567 18.552,17.014 18,17.014" id="Fill-507" fill="#FFFFFF"></path>
                <path d="M18,21.014 L6,21.014 C5.448,21.014 5,20.567 5,20.014 C5,19.461 5.448,19.014 6,19.014 L18,19.014 C18.552,19.014 19,19.461 19,20.014 C19,20.567 18.552,21.014 18,21.014" id="Fill-508" fill="#FFFFFF"></path>
            </g>
        </g>
    </g>
</svg>