<?xml version="1.0" encoding="UTF-8"?>
<svg width="34px" height="41px" viewBox="0 0 34 41" version="1.1" xmlns="http://www.w3.org/2000/svg" xmlns:xlink="http://www.w3.org/1999/xlink">
    <!-- Generator: Sketch 54.1 (76490) - https://sketchapp.com -->
    <title>Group_8</title>
    <desc>Created with Sketch.</desc>
    <g id="Page-1" stroke="none" stroke-width="1" fill="none" fill-rule="evenodd">
        <g id="fusion-logo" transform="translate(0.000000, -1.000000)" fill="#f1f5f8" fill-rule="nonzero">
            <g id="Group_8">
                <path d="M19.157,10.915 C15.757,12.177 13.616,14.782 14.286,17.182 C15.05,19.922 18.98,21.025 23.241,19.382 C27.455,17.761 29.197,14.527 27.53,12.182 C26.065,10.128 22.524,9.664 19.157,10.915 Z" id="Path_32"></path>
                <path d="M32.97,1.965 C31.411,0.709 28.425,0.756 25.57,1.658 C24.3473723,1.99824553 23.2595387,2.70751998 22.455,3.689 C21.021,5.506 19.822,5.699 17.197,6.66 C15.0731638,7.62993008 12.7400098,8.05179568 10.411,7.887 C9.10636633,7.86179516 7.80918379,8.08931147 6.591,8.557 C3.581,9.783 1.591,11.605 1.241,13.612 C1.16153306,14.5295706 1.66359796,15.3990975 2.498,15.789 C5.239,17.245 5.754,17.43 5.913,19.727 C6.092,22.307 4.325,26.087 1.987,28.92 C0.76688427,30.553929 0.0740688071,32.5210924 0.001,34.559 C0.22,39.679 4.111,42.635 10.288,40.134 C16.37,37.672 19.149,32.229 18.236,27.501 C17.8600613,25.637874 16.5452299,24.1027686 14.762,23.445 C12.672,22.445 10.172,20.924 9.711,18.239 C9.47952454,16.1198395 10.1718114,14.0036278 11.611,12.431 C13.3445073,10.6697711 15.4532591,9.32261744 17.78,8.49 C20.3805787,7.54399184 23.1588103,7.18740544 25.914,7.446 C27.6279548,7.51792033 29.3371487,7.21770264 30.924,6.566 C33.398,5.259 34.706,3.367 32.97,1.965 Z" id="Path_33"></path>
            </g>
        </g>
    </g>
</svg>