<?xml version="1.0" encoding="UTF-8"?>
<svg width="200px" height="200px" viewBox="0 0 200 200" version="1.1" xmlns="http://www.w3.org/2000/svg" xmlns:xlink="http://www.w3.org/1999/xlink">
    <!-- Generator: Sketch 54.1 (76490) - https://sketchapp.com -->
    <title>Audio Small</title>
    <desc>Created with Sketch.</desc>
    <g id="Audio-Small" stroke="none" stroke-width="1" fill="none" fill-rule="evenodd">
        <g id="Audio" transform="translate(62.000000, 50.000000)">
            <g>
                <path d="M54.4375,0 L2.6125,0 C1.16964286,0 0,1.16964286 0,3.43928571 L0,98.2142857 C0,98.8303571 1.16964286,100 2.6125,100 L74.1732143,100 C75.6160714,100 76.7857143,98.8303571 76.7857143,98.2142857 L76.7857143,23.175 C76.7857143,21.9321429 76.6196429,21.5321429 76.3267857,21.2375 L55.5482143,0.458928571 C55.2535714,0.166071429 54.8535714,0 54.4375,0" id="Fill-16" fill="#E9E9E0" fill-rule="nonzero"></path>
                <polyline id="Fill-17" fill="#D9D7CA" fill-rule="nonzero" points="55.3571429 0.269642857 55.3571429 21.4285714 76.5160714 21.4285714 55.3571429 0.269642857"></polyline>
                <g id="Fill-244-2" transform="translate(0.000000, 69.642857)" fill="#7D6599" fill-rule="nonzero">
                    <path d="M74.1732143,30.3571429 L2.6125,30.3571429 C1.16964286,30.3571429 0,29.1875 0,27.7446429 L0,0 L76.7857143,0 L76.7857143,27.7446429 C76.7857143,29.1875 75.6160714,30.3571429 74.1732143,30.3571429" id="Fill-244"></path>
                </g>
                <text font-family="Montserrat-Bold, Montserrat" font-size="12.5" font-weight="bold" fill="#FFFFFF">
                    <tspan x="19.6428571" y="88.7857143">Audio</tspan>
                </text>
                <path d="M52.0892857,26.7607143 C51.0767857,25.3392857 49.7678571,24.0053571 47.9678571,22.5642857 C40.9785714,16.9732143 39.4732143,11.3553571 39.2857143,10.5321429 L39.2857143,8.92857143 C39.2857143,7.94107143 38.4875,7.14285714 37.5,7.14285714 C36.5125,7.14285714 35.7142857,7.94107143 35.7142857,8.92857143 L35.7142857,41.8071429 L29.0964286,41.8071429 C22.1642857,41.8071429 17.8571429,45.3089286 17.8571429,50.9446429 C17.8571429,57.1339286 21.8571429,61.1339286 28.0464286,61.1339286 C34.2446429,61.1339286 39.2857143,56.0928571 39.2857143,49.8946429 L39.2857143,29.4071429 L39.8178571,29.8428571 C40.425,30.4428571 41.3553571,31.1285714 42.5339286,31.9946429 C46.675,35.0464286 53.6071429,40.15 51.8625,45.9107143 C51.8107143,46.0839286 51.7857143,46.2571429 51.7857143,46.4285714 C51.7857143,47.1964286 52.2821429,47.9035714 53.0535714,48.1375 C53.2267857,48.1892857 53.4,48.2142857 53.5714286,48.2142857 C54.3392857,48.2142857 55.0464286,47.7178571 55.2803571,46.9464286 C58.1857143,37.3482143 54.5267857,30.1785714 52.0892857,26.7607143 L52.0892857,26.7607143 Z M35.7142857,49.8946429 C35.7142857,54.125 32.275,57.5625 28.0464286,57.5625 C23.8410714,57.5625 21.4285714,55.1517857 21.4285714,50.9446429 C21.4285714,46.3446429 25.5982143,45.3785714 29.0964286,45.3785714 L35.7142857,45.3785714 L35.7142857,49.8946429 L35.7142857,49.8946429 Z M44.6517857,29.1214286 C43.6321429,28.3678571 42.75,27.7196429 42.2035714,27.1910714 L39.2857143,24.7982143 L39.2857143,18.5964286 C40.7625,20.6928571 42.8339286,23.0321429 45.7357143,25.3517857 C47.2696429,26.5821429 48.3642857,27.6875 49.1803571,28.8357143 C50.4589286,30.625 51.7357143,33.0107143 52.3732143,35.9375 C50.0035714,33.0625 46.8660714,30.7517857 44.6517857,29.1214286 L44.6517857,29.1214286 Z" id="Fill-263" fill="#C8BDB8" fill-rule="nonzero"></path>
            </g>
        </g>
    </g>
</svg>