<?xml version="1.0" encoding="UTF-8"?>
<svg width="200px" height="200px" viewBox="0 0 200 200" version="1.1" xmlns="http://www.w3.org/2000/svg" xmlns:xlink="http://www.w3.org/1999/xlink">
    <!-- Generator: Sketch 54.1 (76490) - https://sketchapp.com -->
    <title>Artboard</title>
    <desc>Created with Sketch.</desc>
    <g id="Artboard" stroke="none" stroke-width="1" fill="none" fill-rule="evenodd">
        <g id="More-Files-Flat-3" transform="translate(79.000000, 72.000000)" fill-rule="nonzero">
            <path d="M30.485,0 L1.463,0 C0.655,0 0,0.655 0,1.926 L0,55 C0,55.345 0.655,56 1.463,56 L41.537,56 C42.345,56 43,55.345 43,55 L43,12.978 C43,12.282 42.907,12.058 42.743,11.893 L31.107,0.257 C30.942,0.093 30.718,0 30.485,0" id="Fill-10" fill="#E9E9E0"></path>
            <polyline id="Fill-11" fill="#D9D7CA" points="31 0.151 31 12 42.849 12 31 0.151"></polyline>
            <path d="M41.537,56 L1.463,56 C0.655,56 0,55.345 0,54.537 L0,39 L43,39 L43,54.537 C43,55.345 42.345,56 41.537,56" id="Fill-248" fill="#C8BDB8"></path>
            <path d="M15,47 C15,48.657 13.657,50 12,50 C10.343,50 9,48.657 9,47 C9,45.343 10.343,44 12,44 C13.657,44 15,45.343 15,47" id="Fill-268" fill="#FFFFFF"></path>
            <path d="M25,47 C25,48.657 23.657,50 22,50 C20.343,50 19,48.657 19,47 C19,45.343 20.343,44 22,44 C23.657,44 25,45.343 25,47" id="Fill-269" fill="#FFFFFF"></path>
            <path d="M35,47 C35,48.657 33.657,50 32,50 C30.343,50 29,48.657 29,47 C29,45.343 30.343,44 32,44 C33.657,44 35,45.343 35,47" id="Fill-270" fill="#FFFFFF"></path>
        </g>
    </g>
</svg>