<?xml version="1.0" encoding="UTF-8"?>
<svg width="200px" height="200px" viewBox="0 0 200 200" version="1.1" xmlns="http://www.w3.org/2000/svg" xmlns:xlink="http://www.w3.org/1999/xlink">
    <!-- Generator: Sketch 54.1 (76490) - https://sketchapp.com -->
    <title>Placeholder Small</title>
    <desc>Created with Sketch.</desc>
    <g id="Placeholder-Small" stroke="none" stroke-width="1" fill="none" fill-rule="evenodd">
        <g id="Placeholder" transform="translate(62.000000, 50.000000)">
            <g>
                <path d="M54.4375,0 L2.6125,0 C1.16964286,0 0,1.16964286 0,3.43928571 L0,98.2142857 C0,98.8303571 1.16964286,100 2.6125,100 L74.1732143,100 C75.6160714,100 76.7857143,98.8303571 76.7857143,98.2142857 L76.7857143,23.175 C76.7857143,21.9321429 76.6196429,21.5321429 76.3267857,21.2375 L55.5482143,0.458928571 C55.2535714,0.166071429 54.8535714,0 54.4375,0" id="Fill-14" fill="#E9E9E0"></path>
                <polyline id="Fill-15" fill="#D9D7CA" points="55.3571429 0.269642857 55.3571429 21.4285714 76.5160714 21.4285714 55.3571429 0.269642857"></polyline>
                <path d="M51.7857143,44.6428571 C51.7857143,54.5053571 43.7910714,62.5 33.9285714,62.5 C24.0660714,62.5 16.0714286,54.5053571 16.0714286,44.6428571 C16.0714286,34.7803571 24.0660714,26.7857143 33.9285714,26.7857143 C43.7910714,26.7857143 51.7857143,34.7803571 51.7857143,44.6428571 L51.7857143,44.6428571 Z" id="Fill-273" fill="#FFFFFF"></path>
                <path d="M51.7857143,44.6428571 C51.7857143,54.5053571 43.7910714,62.5 33.9285714,62.5 C24.0660714,62.5 16.0714286,54.5053571 16.0714286,44.6428571 C16.0714286,34.7803571 24.0660714,26.7857143 33.9285714,26.7857143 C43.7910714,26.7857143 51.7857143,34.7803571 51.7857143,44.6428571 L51.7857143,44.6428571 Z" id="Stroke-274" stroke="#556080" stroke-width="3.57142857"></path>
                <path d="M44.6428571,58.9285714 L64.2857143,78.5714286" id="Stroke-275" stroke="#556080" stroke-width="3.57142857" stroke-linecap="round"></path>
                <path d="M33.9285714,39.2857143 L23.2142857,39.2857143 C22.2267857,39.2857143 21.4285714,38.4875 21.4285714,37.5 C21.4285714,36.5125 22.2267857,35.7142857 23.2142857,35.7142857 L33.9285714,35.7142857 C34.9160714,35.7142857 35.7142857,36.5125 35.7142857,37.5 C35.7142857,38.4875 34.9160714,39.2857143 33.9285714,39.2857143" id="Fill-276" fill="#D1D4D1"></path>
                <path d="M42.8571429,39.2857143 L39.2857143,39.2857143 C38.2982143,39.2857143 37.5,38.4875 37.5,37.5 C37.5,36.5125 38.2982143,35.7142857 39.2857143,35.7142857 L42.8571429,35.7142857 C43.8446429,35.7142857 44.6428571,36.5125 44.6428571,37.5 C44.6428571,38.4875 43.8446429,39.2857143 42.8571429,39.2857143" id="Fill-277" fill="#D1D4D1"></path>
                <path d="M32.1428571,53.5714286 L28.5714286,53.5714286 C27.5839286,53.5714286 26.7857143,52.7732143 26.7857143,51.7857143 C26.7857143,50.7982143 27.5839286,50 28.5714286,50 L32.1428571,50 C33.1303571,50 33.9285714,50.7982143 33.9285714,51.7857143 C33.9285714,52.7732143 33.1303571,53.5714286 32.1428571,53.5714286" id="Fill-278" fill="#D1D4D1"></path>
                <path d="M42.8571429,53.5714286 L39.2857143,53.5714286 C38.2982143,53.5714286 37.5,52.7732143 37.5,51.7857143 C37.5,50.7982143 38.2982143,50 39.2857143,50 L42.8571429,50 C43.8446429,50 44.6428571,50.7982143 44.6428571,51.7857143 C44.6428571,52.7732143 43.8446429,53.5714286 42.8571429,53.5714286" id="Fill-279" fill="#D1D4D1"></path>
                <path d="M30.3571429,46.4285714 L23.2142857,46.4285714 C22.2267857,46.4285714 21.4285714,45.6303571 21.4285714,44.6428571 C21.4285714,43.6553571 22.2267857,42.8571429 23.2142857,42.8571429 L30.3571429,42.8571429 C31.3446429,42.8571429 32.1428571,43.6553571 32.1428571,44.6428571 C32.1428571,45.6303571 31.3446429,46.4285714 30.3571429,46.4285714" id="Fill-280" fill="#D1D4D1"></path>
                <path d="M46.4285714,46.4285714 L37.5,46.4285714 C36.5125,46.4285714 35.7142857,45.6303571 35.7142857,44.6428571 C35.7142857,43.6553571 36.5125,42.8571429 37.5,42.8571429 L46.4285714,42.8571429 C47.4160714,42.8571429 48.2142857,43.6553571 48.2142857,44.6428571 C48.2142857,45.6303571 47.4160714,46.4285714 46.4285714,46.4285714" id="Fill-281" fill="#D1D4D1"></path>
            </g>
        </g>
    </g>
</svg>