<?xml version="1.0" encoding="UTF-8"?>
<svg width="200px" height="200px" viewBox="0 0 200 200" version="1.1" xmlns="http://www.w3.org/2000/svg" xmlns:xlink="http://www.w3.org/1999/xlink">
    <!-- Generator: Sketch 54.1 (76490) - https://sketchapp.com -->
    <title>Placeholder Large Copy</title>
    <desc>Created with Sketch.</desc>
    <g id="Placeholder-Large-Copy" stroke="none" stroke-width="1" fill="none" fill-rule="evenodd">
        <g id="Placeholder" transform="translate(33.000000, 13.000000)">
            <g>
                <path d="M95.9765625,0 L4.60599347,0 C2.06215019,0 0,2.046875 0,6.01875 L0,171.875 C0,172.953125 2.06215019,175 4.60599347,175 L130.771805,175 C133.315648,175 135.377799,172.953125 135.377799,171.875 L135.377799,40.55625 C135.377799,38.38125 135.085005,37.68125 134.56868,37.165625 L97.9348181,0.803125 C97.4153451,0.290625 96.7101213,0 95.9765625,0" id="Fill-14" fill="#E9E9E0"></path>
                <polyline id="Fill-15" fill="#D9D7CA" points="97.5979478 0.471875 97.5979478 37.5 134.902402 37.5 97.5979478 0.471875"></polyline>
                <path d="M91.301306,78.125 C91.301306,95.384375 77.2062733,109.375 59.818097,109.375 C42.4299207,109.375 28.3348881,95.384375 28.3348881,78.125 C28.3348881,60.865625 42.4299207,46.875 59.818097,46.875 C77.2062733,46.875 91.301306,60.865625 91.301306,78.125 L91.301306,78.125 Z" id="Fill-273" fill="#FFFFFF"></path>
                <path d="M91.301306,78.125 C91.301306,95.384375 77.2062733,109.375 59.818097,109.375 C42.4299207,109.375 28.3348881,95.384375 28.3348881,78.125 C28.3348881,60.865625 42.4299207,46.875 59.818097,46.875 C77.2062733,46.875 91.301306,60.865625 91.301306,78.125 L91.301306,78.125 Z" id="Stroke-274" stroke="#556080" stroke-width="6.25"></path>
                <path d="M78.7080224,103.125 L113.339552,137.5" id="Stroke-275" stroke="#556080" stroke-width="6.25" stroke-linecap="round"></path>
                <path d="M59.818097,68.75 L40.9281716,68.75 C39.1871502,68.75 37.7798507,67.353125 37.7798507,65.625 C37.7798507,63.896875 39.1871502,62.5 40.9281716,62.5 L59.818097,62.5 C61.5591185,62.5 62.9664179,63.896875 62.9664179,65.625 C62.9664179,67.353125 61.5591185,68.75 59.818097,68.75" id="Fill-276" fill="#D1D4D1"></path>
                <path d="M75.5597015,68.75 L69.2630597,68.75 C67.5220382,68.75 66.1147388,67.353125 66.1147388,65.625 C66.1147388,63.896875 67.5220382,62.5 69.2630597,62.5 L75.5597015,62.5 C77.3007229,62.5 78.7080224,63.896875 78.7080224,65.625 C78.7080224,67.353125 77.3007229,68.75 75.5597015,68.75" id="Fill-277" fill="#D1D4D1"></path>
                <path d="M56.6697761,93.75 L50.3731343,93.75 C48.6321129,93.75 47.2248134,92.353125 47.2248134,90.625 C47.2248134,88.896875 48.6321129,87.5 50.3731343,87.5 L56.6697761,87.5 C58.4107976,87.5 59.818097,88.896875 59.818097,90.625 C59.818097,92.353125 58.4107976,93.75 56.6697761,93.75" id="Fill-278" fill="#D1D4D1"></path>
                <path d="M75.5597015,93.75 L69.2630597,93.75 C67.5220382,93.75 66.1147388,92.353125 66.1147388,90.625 C66.1147388,88.896875 67.5220382,87.5 69.2630597,87.5 L75.5597015,87.5 C77.3007229,87.5 78.7080224,88.896875 78.7080224,90.625 C78.7080224,92.353125 77.3007229,93.75 75.5597015,93.75" id="Fill-279" fill="#D1D4D1"></path>
                <path d="M53.5214552,81.25 L40.9281716,81.25 C39.1871502,81.25 37.7798507,79.853125 37.7798507,78.125 C37.7798507,76.396875 39.1871502,75 40.9281716,75 L53.5214552,75 C55.2624767,75 56.6697761,76.396875 56.6697761,78.125 C56.6697761,79.853125 55.2624767,81.25 53.5214552,81.25" id="Fill-280" fill="#D1D4D1"></path>
                <path d="M81.8563433,81.25 L66.1147388,81.25 C64.3737174,81.25 62.9664179,79.853125 62.9664179,78.125 C62.9664179,76.396875 64.3737174,75 66.1147388,75 L81.8563433,75 C83.5973647,75 85.0046642,76.396875 85.0046642,78.125 C85.0046642,79.853125 83.5973647,81.25 81.8563433,81.25" id="Fill-281" fill="#D1D4D1"></path>
            </g>
        </g>
    </g>
</svg>