<?xml version="1.0" encoding="UTF-8"?>
<svg width="43px" height="56px" viewBox="0 0 43 56" version="1.1" xmlns="http://www.w3.org/2000/svg" xmlns:xlink="http://www.w3.org/1999/xlink">
    <!-- Generator: Sketch 54.1 (76490) - https://sketchapp.com -->
    <title>Placeholder</title>
    <desc>Created with Sketch.</desc>
    <g id="Page-1" stroke="none" stroke-width="1" fill="none" fill-rule="evenodd">
        <g id="Icons" transform="translate(-247.000000, -15.000000)">
            <g id="Placeholder" transform="translate(247.000000, 15.000000)">
                <g>
                    <path d="M30.485,0 L1.463,0 C0.655,0 0,0.655 0,1.926 L0,55 C0,55.345 0.655,56 1.463,56 L41.537,56 C42.345,56 43,55.345 43,55 L43,12.978 C43,12.282 42.907,12.058 42.743,11.893 L31.107,0.257 C30.942,0.093 30.718,0 30.485,0" id="Fill-14" fill="#E9E9E0"></path>
                    <polyline id="Fill-15" fill="#D9D7CA" points="31 0.151 31 12 42.849 12 31 0.151"></polyline>
                    <path d="M29,25 C29,30.523 24.523,35 19,35 C13.477,35 9,30.523 9,25 C9,19.477 13.477,15 19,15 C24.523,15 29,19.477 29,25 L29,25 Z" id="Fill-273" fill="#FFFFFF"></path>
                    <path d="M29,25 C29,30.523 24.523,35 19,35 C13.477,35 9,30.523 9,25 C9,19.477 13.477,15 19,15 C24.523,15 29,19.477 29,25 L29,25 Z" id="Stroke-274" stroke="#556080" stroke-width="2"></path>
                    <path d="M25,33 L36,44" id="Stroke-275" stroke="#556080" stroke-width="2" stroke-linecap="round"></path>
                    <path d="M19,22 L13,22 C12.447,22 12,21.553 12,21 C12,20.447 12.447,20 13,20 L19,20 C19.553,20 20,20.447 20,21 C20,21.553 19.553,22 19,22" id="Fill-276" fill="#D1D4D1"></path>
                    <path d="M24,22 L22,22 C21.447,22 21,21.553 21,21 C21,20.447 21.447,20 22,20 L24,20 C24.553,20 25,20.447 25,21 C25,21.553 24.553,22 24,22" id="Fill-277" fill="#D1D4D1"></path>
                    <path d="M18,30 L16,30 C15.447,30 15,29.553 15,29 C15,28.447 15.447,28 16,28 L18,28 C18.553,28 19,28.447 19,29 C19,29.553 18.553,30 18,30" id="Fill-278" fill="#D1D4D1"></path>
                    <path d="M24,30 L22,30 C21.447,30 21,29.553 21,29 C21,28.447 21.447,28 22,28 L24,28 C24.553,28 25,28.447 25,29 C25,29.553 24.553,30 24,30" id="Fill-279" fill="#D1D4D1"></path>
                    <path d="M17,26 L13,26 C12.447,26 12,25.553 12,25 C12,24.447 12.447,24 13,24 L17,24 C17.553,24 18,24.447 18,25 C18,25.553 17.553,26 17,26" id="Fill-280" fill="#D1D4D1"></path>
                    <path d="M26,26 L21,26 C20.447,26 20,25.553 20,25 C20,24.447 20.447,24 21,24 L26,24 C26.553,24 27,24.447 27,25 C27,25.553 26.553,26 26,26" id="Fill-281" fill="#D1D4D1"></path>
                </g>
            </g>
        </g>
    </g>
</svg>